<?xml version="1.0" encoding="UTF-8"?>
<svg id="Layer_1" data-name="Layer 1" xmlns="http://www.w3.org/2000/svg" viewBox="0 0 551.24 543.6">
  <defs>
    <style>
      .cls-1 {
        fill: #e94033;
      }

      .cls-2 {
        fill: #ff0;
      }

      .cls-3 {
        fill: #ff931e;
      }
    </style>
  </defs>
  <g>
    <circle class="cls-2" cx="279.43" cy="271.8" r="271.2"/>
    <path d="m279.43,543.6c-72.6,0-140.86-28.27-192.19-79.61C35.91,412.66,7.63,344.4,7.63,271.8s28.27-140.86,79.61-192.19C138.58,28.27,206.83,0,279.43,0s140.86,28.27,192.19,79.61c51.34,51.34,79.61,119.59,79.61,192.19s-28.27,140.86-79.61,192.19-119.59,79.61-192.19,79.61Zm0-542.41c-72.28,0-140.24,28.15-191.35,79.26C36.97,131.56,8.83,199.52,8.83,271.8s28.15,140.24,79.26,191.35c51.11,51.11,119.07,79.26,191.35,79.26s140.24-28.15,191.35-79.26c51.11-51.11,79.26-119.07,79.26-191.35s-28.15-140.24-79.26-191.35C419.67,29.34,351.72,1.19,279.43,1.19Z"/>
  </g>
  <g>
    <circle class="cls-3" cx="281.7" cy="272.28" r="247.63"/>
    <path d="m281.7,520.51c-66.31,0-128.64-25.82-175.53-72.71s-72.71-109.22-72.71-175.53,25.82-128.64,72.71-175.53S215.39,24.04,281.7,24.04s128.64,25.82,175.53,72.71,72.71,109.22,72.71,175.53-25.82,128.64-72.71,175.53-109.22,72.71-175.53,72.71Zm0-495.27c-65.99,0-128.02,25.7-174.68,72.36-46.66,46.66-72.36,108.7-72.36,174.68s25.7,128.02,72.36,174.68,108.7,72.36,174.68,72.36,128.02-25.7,174.68-72.36,72.36-108.7,72.36-174.68-25.7-128.02-72.36-174.68c-46.66-46.66-108.7-72.36-174.68-72.36Z"/>
  </g>
  <g>
    <path d="m218.52,187.4l-36.52,1.43c-22.44,0-37.54-.77-45.29-2.33-7.76-1.55-14.68-3.4-20.77-5.55-6.09-2.15-10.92-4.65-14.5-7.52-8.83-6.68-13.25-15.63-13.25-26.85,0-3.34,2.02-8.35,6.09-15.04,4.06-6.68,11.04-14.62,20.94-23.81,9.9-9.19,21.72-17.9,35.44-26.14,13.72-8.23,31.8-15.45,54.24-21.66,22.43-6.2,46.78-9.78,73.04-10.74,9.31,0,19.15,1.14,29.54,3.4,10.38,2.27,18.98,4.96,25.78,8.06,6.8,3.1,12.83,7.82,18.08,14.14,5.25,6.33,7.88,13.67,7.88,22.02,0,6.69-6.44,13.85-19.33,21.48-14.32,8.59-33.24,12.89-56.75,12.89s-35.27-1.67-35.27-5.01c0-2.62,6.86-5.73,20.59-9.31,13.72-3.58,27.51-7.75,41.35-12.53,13.84-4.77,20.77-10.14,20.77-16.11,0-3.1-5.25-4.65-15.75-4.65-69.22,0-128.65,17.9-178.3,53.7-9.31,6.93-13.96,12.89-13.96,17.9,0,7.88,24.82,11.81,74.47,11.81,44.63.48,66.95,12.41,66.95,35.8,0,16.71-11.34,32.58-34.01,47.62-22.68,15.04-49.35,26.73-80.02,35.09-30.67,8.35-59.49,12.65-86.46,12.89-12.65,0-26.01-3.35-40.1-10.02-14.08-6.69-21.12-14.8-21.12-24.35,0-3.1,2.63-4.77,7.88-5.01,28.17-3.1,46.19-6.44,54.06-10.02,1.91-.48,3.46-.72,4.65-.72s1.79.24,1.79.72c0,.96-1.43,2.51-4.3,4.65-2.62,1.43-5.49,2.75-8.59,3.94-6.68,2.39-10.02,3.94-10.02,4.65s2.39,1.07,7.16,1.07,16.83-1.91,36.16-5.73c19.33-3.82,40.04-8.71,62.12-14.68,22.07-5.96,41.59-13.36,58.54-22.2,16.94-8.83,25.42-17.3,25.42-25.42,0-5.25-6.21-7.88-18.62-7.88Z"/>
    <path class="cls-1" d="m216.25,182.85l-36.52,1.43c-22.44,0-37.54-.77-45.29-2.33-7.76-1.55-14.68-3.4-20.77-5.55-6.09-2.15-10.92-4.65-14.5-7.52-8.83-6.68-13.25-15.63-13.25-26.85,0-3.34,2.02-8.35,6.09-15.04,4.06-6.68,11.04-14.62,20.94-23.81,9.9-9.19,21.72-17.9,35.44-26.14,13.72-8.23,31.8-15.45,54.24-21.66,22.43-6.2,46.78-9.78,73.04-10.74,9.31,0,19.15,1.14,29.54,3.4,10.38,2.27,18.98,4.96,25.78,8.06,6.8,3.1,12.83,7.82,18.08,14.14,5.25,6.33,7.88,13.67,7.88,22.02,0,6.69-6.44,13.85-19.33,21.48-14.32,8.59-33.24,12.89-56.75,12.89s-35.27-1.67-35.27-5.01c0-2.62,6.86-5.73,20.59-9.31,13.72-3.58,27.51-7.75,41.35-12.53,13.84-4.77,20.77-10.14,20.77-16.11,0-3.1-5.25-4.65-15.75-4.65-69.22,0-128.65,17.9-178.3,53.7-9.31,6.93-13.96,12.89-13.96,17.9,0,7.88,24.82,11.81,74.47,11.81,44.63.48,66.95,12.41,66.95,35.8,0,16.71-11.34,32.58-34.01,47.62-22.68,15.04-49.35,26.73-80.02,35.09-30.67,8.35-59.49,12.65-86.46,12.89-12.65,0-26.01-3.35-40.1-10.02-14.08-6.69-21.12-14.8-21.12-24.35,0-3.1,2.63-4.77,7.88-5.01,28.17-3.1,46.19-6.44,54.06-10.03,1.91-.47,3.46-.71,4.65-.71s1.79.24,1.79.71c0,.96-1.43,2.51-4.3,4.65-2.62,1.43-5.49,2.75-8.59,3.94-6.68,2.39-10.02,3.94-10.02,4.65s2.39,1.07,7.16,1.07,16.83-1.91,36.16-5.73c19.33-3.82,40.04-8.71,62.12-14.68,22.07-5.96,41.59-13.36,58.54-22.2,16.94-8.83,25.42-17.3,25.42-25.42,0-5.25-6.21-7.88-18.62-7.88Z"/>
  </g>
  <g>
    <path d="m224.49,325.74c0-7.4,2.86-14.56,8.59-21.48,5.73-6.92,12.05-13.61,18.98-20.05,6.92-6.44,17.12-14.14,30.61-23.09,13.48-8.95,27.86-16.94,43.14-23.99,15.27-7.04,34.01-13.07,56.21-18.08,22.2-5.01,45.11-7.52,68.74-7.52,20.52,0,40.93,3.94,61.22,11.81,10.26,4.06,18.67,9.97,25.24,17.72,6.56,7.76,9.85,16.77,9.85,27.03,0,15.99-9.67,31.99-29,47.98-19.33,15.99-53.11,33.78-101.32,53.35-4.78,1.2-7.16,2.86-7.16,5.01,0,.72.48,1.55,1.43,2.51,33.89,39.15,61.82,66.48,83.78,81.99,2.62,2.15,3.94,4.3,3.94,6.44,0,5.25-7.76,7.88-23.27,7.88s-28.41-5.01-38.67-15.04c-43.44-46.06-70.77-76.85-81.99-92.37-.24-.95-.66-1.43-1.25-1.43s-1.25.48-1.97,1.43c-38.67,47.5-60.99,78.65-66.95,93.44,0,3.82-.66,5.73-1.97,5.73s-3.4-.72-6.27-2.15c-2.86-1.43-5.85-4.18-8.95-8.23-3.1-4.06-4.65-9.01-4.65-14.86s2.38-13.07,7.16-21.66c33.89-49.17,69.69-90.46,107.41-123.88,15.99-14.08,31.03-25.06,45.11-32.94,2.15-1.91,4.12-2.86,5.91-2.86s3.94.84,6.44,2.51c2.51,1.67,3.76,3.64,3.76,5.91s-.96,4.24-2.86,5.91c-31.27,31.51-52.75,55.02-64.44,70.53-3.11,3.35-4.65,5.61-4.65,6.8s.59,1.79,1.79,1.79h1.43c28.64-7.88,51.79-15.75,69.46-23.63,37.47-16.94,65.88-34.85,85.21-53.7,4.06-3.82,6.09-7.52,6.09-11.1,0-5.49-4.6-9.67-13.78-12.53-9.19-2.86-23.75-4.3-43.68-4.3s-44.34,2.99-73.22,8.95c-28.88,5.97-57.64,15.57-86.28,28.82-28.64,13.25-49.89,28.59-63.73,46.01-1.91,2.15-2.86,3.64-2.86,4.47s1.31,1.25,3.94,1.25,10.8-2.98,24.52-8.95c13.72-5.96,25.48-11.81,35.27-17.54,15.27-10.26,24.82-15.4,28.64-15.4,1.43,0,2.15.3,2.15.9s-1.49,2.68-4.47,6.27c-2.99,3.58-7.16,8.12-12.53,13.6-5.37,5.49-11.99,11.58-19.87,18.26-17.9,15.52-34.37,23.27-49.41,23.27-8.12,0-14.73-2.56-19.87-7.7-5.13-5.13-8.17-10.32-9.13-15.57l-1.79-7.52Z"/>
    <path class="cls-1" d="m222.22,321.19c0-7.4,2.86-14.56,8.59-21.48,5.73-6.92,12.05-13.61,18.98-20.05,6.92-6.44,17.12-14.14,30.61-23.09,13.48-8.95,27.86-16.95,43.14-23.99,15.27-7.04,34.01-13.07,56.21-18.08,22.2-5.01,45.11-7.52,68.74-7.52,20.53,0,40.93,3.94,61.22,11.81,10.26,4.06,18.67,9.97,25.24,17.72,6.56,7.76,9.85,16.77,9.85,27.03,0,15.99-9.67,31.99-29,47.98-19.33,15.99-53.11,33.78-101.32,53.35-4.78,1.2-7.16,2.86-7.16,5.01,0,.72.48,1.55,1.43,2.51,33.89,39.15,61.81,66.48,83.78,81.99,2.62,2.15,3.94,4.3,3.94,6.44,0,5.25-7.76,7.88-23.27,7.88s-28.41-5.01-38.67-15.04c-43.44-46.06-70.77-76.85-81.99-92.37-.24-.95-.66-1.43-1.25-1.43s-1.25.48-1.97,1.43c-38.67,47.5-60.99,78.65-66.95,93.44,0,3.82-.66,5.73-1.97,5.73s-3.4-.72-6.27-2.15c-2.86-1.43-5.85-4.18-8.95-8.23-3.1-4.06-4.65-9.01-4.65-14.86s2.38-13.07,7.16-21.66c33.89-49.17,69.69-90.46,107.41-123.88,15.99-14.08,31.02-25.06,45.11-32.94,2.15-1.91,4.12-2.87,5.91-2.87s3.94.84,6.45,2.51c2.51,1.67,3.76,3.64,3.76,5.91s-.96,4.24-2.86,5.91c-31.27,31.51-52.75,55.02-64.44,70.53-3.1,3.35-4.65,5.61-4.65,6.8s.59,1.79,1.79,1.79h1.43c28.64-7.88,51.79-15.75,69.46-23.63,37.47-16.94,65.88-34.85,85.21-53.7,4.06-3.82,6.09-7.52,6.09-11.1,0-5.49-4.6-9.67-13.78-12.53-9.19-2.87-23.75-4.3-43.68-4.3s-44.34,2.99-73.22,8.95c-28.88,5.97-57.64,15.57-86.28,28.82s-49.89,28.59-63.73,46.01c-1.91,2.15-2.86,3.64-2.86,4.47s1.31,1.25,3.94,1.25,10.8-2.98,24.52-8.95c13.72-5.96,25.48-11.81,35.27-17.54,15.27-10.26,24.82-15.4,28.64-15.4,1.43,0,2.15.3,2.15.9s-1.49,2.68-4.48,6.27c-2.99,3.58-7.16,8.12-12.53,13.6-5.37,5.49-11.99,11.58-19.87,18.26-17.9,15.52-34.37,23.27-49.41,23.27-8.12,0-14.73-2.56-19.87-7.7-5.13-5.13-8.17-10.32-9.13-15.57l-1.79-7.52Z"/>
  </g>
</svg>